<?xml version="1.0" encoding="UTF-8" standalone="no"?> <!-- Created with Vectornator for iOS (http://vectornator.io/) --><!DOCTYPE svg PUBLIC "-//W3C//DTD SVG 1.1//EN" "http://www.w3.org/Graphics/SVG/1.1/DTD/svg11.dtd">
<svg height="100%" style="fill-rule:evenodd;clip-rule:evenodd;stroke-linecap:round;stroke-linejoin:round;" xmlns:xlink="http://www.w3.org/1999/xlink" xmlns="http://www.w3.org/2000/svg" xml:space="preserve" width="100%" xmlns:vectornator="http://vectornator.io" version="1.1" viewBox="0 0 316.959 165.474">
<metadata>
<vectornator:setting key="DimensionsVisible" value="1"/>
<vectornator:setting key="New" value="1"/>
<vectornator:setting key="SnapToPoints" value="0"/>
<vectornator:setting key="GuidesVisible" value="1"/>
<vectornator:setting key="RulersVisible" value="1"/>
<vectornator:setting key="CMYKEnabledKey" value="0"/>
<vectornator:setting key="SnapToEdges" value="0"/>
<vectornator:setting key="DisplayWhiteBackground" value="0"/>
<vectornator:setting key="SnapToGuides" value="1"/>
<vectornator:setting key="GridSpacing" value="36"/>
<vectornator:setting key="Units" value="Pixels"/>
<vectornator:setting key="DynamicGuides" value="0"/>
<vectornator:setting key="SnapToGrid" value="0"/>
</metadata>
<defs/>
<g id="Layer 2" vectornator:layerName="Layer 2">
<path stroke="#000000" stroke-width="1" d="M100.357+47.0245C96.5456+54.0127+95.7737+53.72+95.2165+54.6273C91.9165+60.0006+86.3799+65.12+81.0939+69.775C78.5633+72.0034+74.2858+75.5309+74.699+75.5309C73.0969+77.0661+66.8257+83.2894+65.2365+85.0124C57.1883+93.7382+59.1097+90.7175+51.4813+100.729C41.3085+112.837+38.6573+114.104+35.6539+122.756C33.6848+128.428+35.3007+124.537+30.6504+141.003C28.1406+149.889+27.1452+155.925+25.4472+154.275C24.2117+153.075+29.9033+132.148+31.9429+124.126C33.1836+119.246+34.5686+116.152+36.0268+113.816C41.4496+105.129+49.3683+97.2566+60.2367+85.1366C73.5222+70.321+93.4124+56.8619+99.536+38.2724C108.842+10.0208+96.6051+4.67197+66.4135+11.2187C60.9527+12.4028+57.4784+13.1543+45.6512+16.9493C33.2123+21.301+9.79171+29.3411+4.49823+29.1056C-0.795257+28.8702+54.7325+7.30129+81.3507+4.73603C99.205+3.01537+111.395+16.6144+106.968+31.9727C105.432+37.3022+103.213+42.071+100.357+47.0245Z" fill="#000000" stroke-linecap="round" opacity="1" stroke-linejoin="round"/>
<path stroke="#000000" stroke-width="1" d="M250.621+83.5038C250.605+83.9849+248.9+81.3849+246.646+79.6639C245.152+78.5235+243.424+78.011+242.093+79.0417C239.428+81.1059+237.526+85.1895+237.489+85.272C237.1+86.1207+228.76+100.077+235.664+105.352C237.628+106.854+239.947+107.105+241.448+106.393C245.087+104.668+245.421+103.485+246.557+99.9339C248.432+94.0723+249.046+87.2025+249.111+86.4349C249.455+82.3597+250.334+79.8381+250.869+78.0962C251.001+77.6663+251.658+76.6621+252.758+77.5235C253.857+78.3849+252.191+90.4848+252.449+97.1745C252.709+99.2925+252.508+106.973+255.062+105.444C255.733+105.042+256.525+104.708+256.412+106.178C256.265+108.099+253.855+108.895+252.107+108.488C251.366+107.983+250.684+107.756+249.895+103.149C249.785+103.715+250.109+103.687+249.999+104.253C249.712+104.266+249.212+105.353+248.57+106.15C248.073+106.766+248.191+106.706+246.433+107.814C246.012+108.08+245.949+108.217+244.57+108.792C242.758+109.548+237.874+110.241+235.574+109.456C233.274+108.671+232.674+107.422+232.023+106.95C230.692+105.986+229.779+103.842+229.405+97.6478C228.902+89.3357+238.022+73.2902+244.829+75.2578C254.725+78.1185+250.639+82.9283+250.621+83.5038Z" fill="#000000" stroke-linecap="round" opacity="1" stroke-linejoin="round"/>
<path stroke="#000000" stroke-width="1" d="M144.77+77.8686C156.303+68.5115+166.06+91.5594+160.471+100.993C160.088+101.639+160.301+101.862+156.662+106.205C153.023+110.547+146.103+111.016+140.321+108.27C137.693+107.044+136.629+104.376+136.323+102.835C134.838+96.3448+135.782+92.4469+138.886+85.1627C140.306+81.8316+145.63+74.6166+147.089+76.509C148.548+78.4015+141.328+83.7233+139.92+91.5287C139.21+95.4641+139.541+97.0057+139.679+99.874C139.83+103.022+142.485+105.465+143.805+106.02C145.125+106.575+151.89+106.946+155.089+102.987C158.038+99.336+158.35+98.6277+158.625+93.5661C158.84+89.6076+156.301+77.2106+144.77+77.8686Z" fill="#000000" stroke-linecap="round" opacity="1" stroke-linejoin="round"/>
<path stroke="#000000" stroke-width="1" d="M168.935+78.4333C169.776+76.7261+172.428+75.3734+171.438+77.5176C170.4+80.8067+171.329+82.1619+171.697+80.895C172.694+77.4672+177.612+75.512+178.591+75.5643C179.401+75.6076+185.328+74.1514+188.353+82.4698C188.984+84.2059+189.318+86.5262+189.534+89.213C189.969+94.6394+189.478+100.564+192.043+105.345C192.359+105.171+192.873+105.08+193.188+104.906C193.649+106.16+190.98+107.418+190.194+107.352C189.408+107.287+188.611+106.935+188.021+106.125C187.431+105.315+187.199+105.106+186.686+100.738C185.937+94.3472+186.473+100.23+185.842+91.0248C186.065+88.9907+185.044+85.0235+184.395+82.1188C184.249+81.4641+183.381+77.6233+177.959+80.6142C176.827+81.2383+174.804+82.9182+173.916+85.1115C173.489+86.1661+173.303+87.0086+172.993+87.9974C172.374+89.9637+171.632+92.6954+170.102+100.132C169.213+104.46+171.52+109.66+168.205+110.017C164.89+110.375+167.513+81.3219+168.935+78.4333Z" fill="#000000" stroke-linecap="round" opacity="1" stroke-linejoin="round"/>
<path stroke="#000000" stroke-width="1" d="M132.107+78.1337C129.272+75.9671+134.17+76.9968+133.46+76.2915C132.397+76.819+132.226+77.7754+131.693+78.9443C131.128+80.1868+130.387+81.8324+130.387+81.8324C130.387+81.8324+125.042+95.5389+122.33+102.653C120.896+106.415+120.555+108.879+118.501+109.249C116.447+109.619+113.602+105.536+111.898+100.081C109.936+93.806+108.871+86.4707+108.229+81.3636C107.957+79.2017+106.954+77.2709+108.38+76.6473C109.806+76.0237+113.115+89.8823+115.149+97.5448C116.289+101.84+117.803+104.415+117.811+104.543C117.819+104.672+122.019+93.0594+125.634+83.7866C127.11+80.0006+130.559+76.3943+131.036+75.7121C131.514+75.0299+132.603+74.8683+133.101+74.8683C134.704+74.8683+134.942+80.3004+132.107+78.1337Z" fill="#000000" stroke-linecap="round" opacity="1" stroke-linejoin="round"/>
<path stroke="#000000" stroke-width="1" d="M87.8229+76.4992C90.135+74.7558+91.4572+74.9162+92.2255+75.1265C96.2977+76.2412+97.8729+79.0837+100.245+82.0079C101.696+83.7975+104.318+90.4736+101.593+90.0286C100.435+89.8394+95.4859+89.7103+94.7466+89.5697C94.0073+89.4291+86.0121+90.4105+85.9093+90.4351C85.7793+90.4662+80.3479+91.2402+79.6517+91.1962C78.9555+91.1522+81.8265+87.5868+81.5857+87.7654C80.9521+88.2355+91.7338+86.8422+91.9536+86.8267C95.1205+86.6023+98.9057+87.4745+96.836+84.5184C94.7912+81.5979+97.1395+84.5518+94.9422+81.7687C93.8431+80.3766+92.947+76.8913+89.4676+79.2117C85.9882+81.5321+79.6284+88.8248+80.7528+99.6326C81.4135+105.984+88.707+108.073+93.7653+106.475C98.8236+104.878+95.1551+106.299+97.1728+105.382C99.1906+104.464+101.169+100.828+102.34+101.365C103.511+101.901+101.936+105.396+100.628+106.584C99.3188+107.772+96.526+108.99+94.8254+109.303C93.1248+109.616+89.8975+109.564+88.3952+109.449C83.0494+109.039+79.6661+106.764+77.8679+103.56C74.3344+97.2625+76.9214+87.3764+82.765+81.0023C84.2223+79.4128+85.9325+77.3645+87.8229+76.4992Z" fill="#000000" stroke-linecap="round" opacity="1" stroke-linejoin="round"/>
<path stroke="#000000" stroke-width="1" d="M35.9003+30.5391C37.9267+33.6384+37.8558+41.6679+37.8558+51.3022C37.8558+60.9855+38.2138+68.6975+38.658+78.3299C38.8778+83.0965+37.3057+95.7106+34.6244+100.18C31.9431+104.649+33.5517+85.2363+33.6404+78.4133C33.7762+67.9677+32.9521+50.0505+32.9521+35.6149C32.9521+33.213+33.8739+27.4399+35.9003+30.5391Z" fill="#000000" stroke-linecap="round" opacity="1" stroke-linejoin="round"/>
<path stroke="#000000" stroke-width="1" d="M199.965+79.1602C200.806+77.4531+203.459+76.1004+202.468+78.2446C201.431+81.5337+202.359+82.8889+202.727+81.6219C203.724+78.1942+208.642+76.2389+209.622+76.2913C210.432+76.3346+216.359+74.8783+219.383+83.1968C220.015+84.9329+220.349+87.2532+220.564+89.94C221+95.3663+220.509+101.291+223.074+106.072C223.389+105.898+223.903+105.807+224.218+105.633C224.679+106.887+222.01+108.145+221.224+108.079C220.438+108.014+219.641+107.662+219.051+106.852C218.461+106.042+218.229+105.833+217.717+101.465C216.967+95.0741+217.503+100.957+216.872+91.7517C217.095+89.7176+216.075+85.7505+215.425+82.8458C215.279+82.1911+214.411+78.3502+208.989+81.3412C207.857+81.9653+205.834+83.6452+204.947+85.8385C204.52+86.893+204.334+87.7356+204.023+88.7244C203.405+90.6907+202.662+93.4224+201.133+100.859C200.243+105.187+202.55+110.387+199.235+110.744C195.92+111.102+198.543+82.0489+199.965+79.1602Z" fill="#000000" stroke-linecap="round" opacity="1" stroke-linejoin="round"/>
<path stroke="#000000" stroke-width="1" d="M270.72+76.6533C273.032+74.9099+274.355+75.0703+275.123+75.2806C279.195+76.3953+280.77+79.2378+283.142+82.162C284.594+83.9516+287.216+90.6277+284.491+90.1827C283.332+89.9935+278.383+89.8644+277.644+89.7238C276.905+89.5832+268.91+90.5646+268.807+90.5892C268.677+90.6203+263.245+91.3943+262.549+91.3503C261.853+91.3063+264.724+87.7409+264.483+87.9195C263.85+88.3896+274.631+86.9963+274.851+86.9808C278.018+86.7564+281.803+87.6286+279.733+84.6725C277.689+81.752+280.037+84.7059+277.84+81.9229C276.741+80.5307+275.844+77.0454+272.365+79.3658C268.886+81.6862+262.526+88.9789+263.65+99.7867C264.311+106.138+271.604+108.227+276.663+106.629C281.721+105.032+278.053+106.453+280.07+105.536C282.088+104.618+283.819+101.208+285.238+101.519C286.656+101.829+284.834+105.55+283.525+106.738C282.216+107.926+279.423+109.144+277.723+109.457C276.022+109.77+272.795+109.718+271.293+109.603C265.947+109.193+262.564+106.918+260.765+103.714C257.232+97.4166+259.819+87.5305+265.662+81.1564C267.12+79.5669+268.83+77.5186+270.72+76.6533Z" fill="#000000" stroke-linecap="round" opacity="1" stroke-linejoin="round"/>
<path stroke="#d5ac32" stroke-width="1" d="M294.663+99.3551C301.146+96.0493+306.631+104.192+303.489+107.525C303.274+107.753+303.394+107.832+301.348+109.366C299.302+110.9+295.412+111.066+292.162+110.096C290.685+109.663+290.087+108.72+289.915+108.176C289.08+105.883+289.61+104.506+291.356+101.932C292.154+100.755+295.147+98.2062+295.967+98.8748C296.787+99.5434+292.728+101.424+291.937+104.181C291.537+105.572+291.723+106.116+291.801+107.13C291.886+108.242+293.378+109.105+294.121+109.301C294.863+109.497+298.666+109.628+300.464+108.229C302.121+106.94+302.297+106.689+302.451+104.901C302.573+103.503+301.145+99.1227+294.663+99.3551Z" fill="#d5ac32" stroke-linecap="round" opacity="1" stroke-linejoin="round"/>
<path stroke="#000000" stroke-width="1" d="M79.5996+90.6122L82.7235+90.6122L82.7235+88.8458L79.5996+88.8458L79.5996+90.6122Z" fill="#000000" stroke-linecap="round" opacity="1" stroke-linejoin="round"/>
<path stroke="#000000" stroke-width="1" d="M262.281+88.3627L266.412+88.3627L266.412+90.5353L262.281+90.5353L262.281+88.3627Z" fill="#000000" stroke-linecap="round" opacity="1" stroke-linejoin="round"/>
<path stroke="#000000" stroke-width="1" d="M249.914+80.8063L252.489+80.8063L252.489+85.0738L249.914+85.0738L249.914+80.8063Z" fill="#000000" stroke-linecap="round" opacity="1" stroke-linejoin="round"/>
<path stroke="#000000" stroke-width="1" d="M146.341+76.8725L147.959+76.8725L147.959+77.9888L146.341+77.9888L146.341+76.8725Z" fill="#000000" stroke-linecap="round" opacity="1" stroke-linejoin="round"/>
</g>
</svg>
